{"title":"The.Blues.Brothers.DC.1980.1080p.BDRip.x264.Iou1","uid":8406534,"size":1881583416,"categoryP":"video","categoryS":"hd___movies","magnet":"?xt=urn:btih:792873ff2dd2b7da23a65c2f41ff313c88e35331&amp;dn=The.Blues.Brothers.DC.1980.1080p.BDRip.x264.Iou1&amp;tr=udp%3A%2F%2Ftracker.openbittorrent.com%3A80&amp;tr=udp%3A%2F%2Fopen.demonii.com%3A1337&amp;tr=udp%3A%2F%2Ftracker.coppersurfer.tk%3A6969&amp;tr=udp%3A%2F%2Fexodus.desync.com%3A6969","seeders":1,"leechers":0,"uploader":"jaybee211","files":-1,"time":1366817751,"description":"Genre                                    : Action Comedy Musical\nFormat                                   : MPEG-4\nFormat profile                           : Base Media / Version 2\nCodec ID                                 : mp42\nFile size                                : 1.75 GiB\nDuration                                 : 2h 27mn\nOverall bit rate mode                    : Variable\nOverall bit rate                         : 1 698 Kbps\n\nVideo\nID                                       : 1\nFormat                                   : AVC\nFormat/Info                              : Advanced Video Codec\nFormat profile                           : &lt;a class=&quot;__cf_email__&quot; href=&quot;/cdn-cgi/l/email-protection&quot; data-cfemail=&quot;82caebe5eac2ceb6acb2&quot;&gt;[email&amp;#160;protected]&lt;/a&gt;&lt;script cf-hash='f9e31' type=&quot;text/javascript&quot;&gt;\n/* &lt;![CDATA[ */!function(){try{var t=&quot;currentScript&quot;in document?document.currentScript:function(){for(var t=document.getElementsByTagName(&quot;script&quot;),e=t.length;e--;)if(t[e].getAttribute(&quot;cf-hash&quot;))return t[e]}();if(t&amp;&amp;t.previousSibling){var e,r,n,i,c=t.previousSibling,a=c.getAttribute(&quot;data-cfemail&quot;);if(a){for(e=&quot;&quot;,r=parseInt(a.substr(0,2),16),n=2;a.length-n;n+=2)i=parseInt(a.substr(n,2),16)^r,e+=String.fromCharCode(i);e=document.createTextNode(e),c.parentNode.replaceChild(e,c)}}}catch(u){}}();/* ]]&gt; */&lt;/script&gt;\nFormat settings, CABAC                   : Yes\nFormat settings, ReFrames                : 4 frames\nCodec ID                                 : avc1\nCodec ID/Info                            : Advanced Video Coding\nDuration                                 : 2h 27mn\nBit rate mode                            : Variable\nBit rate                                 : 1 504 Kbps\nMaximum bit rate                         : 7 931 Kbps\nWidth                                    : 1 920 pixels\nHeight                                   : 1 080 pixels\nDisplay aspect ratio                     : 16:9\nFrame rate mode                          : Constant\nFrame rate                               : 23.976 fps\nColor space                              : YUV\nChroma subsampling                       : 4:2:0\nBit depth                                : 8 bits\nScan type                                : Progressive\nBits/(Pixel*Frame)                       : 0.030\nStream size                              : 1.55 GiB (89%)\nLanguage                                 : English\n\nAudio\nID                                       : 2\nFormat                                   : AAC\nFormat/Info                              : Advanced Audio Codec\nFormat profile                           : LC\nCodec ID                                 : 40\nDuration                                 : 2h 27mn\nBit rate mode                            : Variable\nBit rate                                 : 192 Kbps\nMaximum bit rate                         : 219 Kbps\nChannel(s)                               : 6 channels\nChannel positions                        : Front: L C R, Side: L R, LFE\nSampling rate                            : 48.0 KHz\nCompression mode                         : Lossy\nStream size                              : 199 MiB (11%)\nTitle                                    : AAC 2-ch 48KHz,English\nLanguage                                 : English\nSubtitles                                : None\n\nIMDB: &lt;a href=&quot; http://www.imdb.com/title/tt0080455/&quot; rel=&quot;nofollow&quot; target=&quot;_NEW&quot;&gt; http://www.imdb.com/title/tt0080455/&lt;/a&gt;\n\nScreens: &lt;a href=&quot; http://bayimg.com/BaMkcAAeD&quot; rel=&quot;nofollow&quot; target=&quot;_NEW&quot;&gt; http://bayimg.com/BaMkcAAeD&lt;/a&gt;\n\n         &lt;a href=&quot; http://bayimg.com/BAmKdaaEd&quot; rel=&quot;nofollow&quot; target=&quot;_NEW&quot;&gt; http://bayimg.com/BAmKdaaEd&lt;/a&gt;\n\n         &lt;a href=&quot; http://bayimg.com/BAMkEaaEd&quot; rel=&quot;nofollow&quot; target=&quot;_NEW&quot;&gt; http://bayimg.com/BAMkEaaEd&lt;/a&gt;\n\n         &lt;a href=&quot; http://bayimg.com/BAMkFAAeD&quot; rel=&quot;nofollow&quot; target=&quot;_NEW&quot;&gt; http://bayimg.com/BAMkFAAeD&lt;/a&gt;\n\n         &lt;a href=&quot; http://bayimg.com/BAMkgAaed&quot; rel=&quot;nofollow&quot; target=&quot;_NEW&quot;&gt; http://bayimg.com/BAMkgAaed&lt;/a&gt;\n\n         &lt;a href=&quot; http://bayimg.com/bamkIaaED&quot; rel=&quot;nofollow&quot; target=&quot;_NEW&quot;&gt; http://bayimg.com/bamkIaaED&lt;/a&gt;  \n\nStoryline\n\nAfter the release of Jake Blues from prison, he and brother Elwood go to visit &quot;The Penguin&quot;, the last of the nuns who raised them in a boarding school. They learn the Archdiocese will stop supporting the school and will sell the place to the Education Authority. The only way to keep the place open is if the $5000 tax on the property is paid within 11 days. The Blues Brothers want to help, and decide to put their blues band back together and raise the the money by staging a big gig. As they set off on their &quot;mission from God&quot; they seem to make more enemies along the way. Will they manage to come up with the money in time? \n\n\nEnjoy.","torrent":{"xt":"urn:btih:792873ff2dd2b7da23a65c2f41ff313c88e35331","amp;dn":"The.Blues.Brothers.DC.1980.1080p.BDRip.x264.Iou1","amp;tr":["udp%3A%2F%2Ftracker.openbittorrent.com%3A80","udp%3A%2F%2Fopen.demonii.com%3A1337","udp%3A%2F%2Ftracker.coppersurfer.tk%3A6969","udp%3A%2F%2Fexodus.desync.com%3A6969"],"infoHash":"792873ff2dd2b7da23a65c2f41ff313c88e35331","infoHashBuffer":{"type":"Buffer","data":[121,40,115,255,45,210,183,218,35,166,92,47,65,255,49,60,136,227,83,49]},"announce":[],"urlList":[]}}